<mxfile host="app.diagrams.net" modified="2022-10-11T07:23:59.826Z" agent="5.0 (Windows NT 10.0; Win64; x64) AppleWebKit/537.36 (KHTML, like Gecko) Chrome/105.0.0.0 Safari/537.36" etag="3Jox9UffrFw1mQP9HPZv" version="20.3.6" type="github">
  <diagram id="KtZ88OwDmmJrXeEbGW03" name="Sayfa -1">
    <mxGraphModel dx="862" dy="393" grid="1" gridSize="10" guides="1" tooltips="1" connect="1" arrows="1" fold="1" page="1" pageScale="1" pageWidth="827" pageHeight="1169" math="0" shadow="0">
      <root>
        <mxCell id="0" />
        <mxCell id="1" parent="0" />
        <mxCell id="AEeR57KaI1lVdAl2nu8--1" value="&lt;b&gt;&lt;font color=&quot;#ff9999&quot; style=&quot;font-size: 18px;&quot; face=&quot;Times New Roman&quot;&gt;CLIENT&lt;/font&gt;&lt;/b&gt;" style="text;html=1;align=center;verticalAlign=middle;resizable=0;points=[];autosize=1;strokeColor=none;fillColor=none;" parent="1" vertex="1">
          <mxGeometry x="130" y="95" width="90" height="40" as="geometry" />
        </mxCell>
        <mxCell id="AEeR57KaI1lVdAl2nu8--2" value="&lt;b&gt;&lt;font color=&quot;#ff9999&quot; face=&quot;Times New Roman&quot; style=&quot;font-size: 18px;&quot;&gt;SERVER&lt;/font&gt;&lt;/b&gt;" style="text;html=1;align=center;verticalAlign=middle;resizable=0;points=[];autosize=1;strokeColor=none;fillColor=none;" parent="1" vertex="1">
          <mxGeometry x="445" y="95" width="100" height="40" as="geometry" />
        </mxCell>
        <mxCell id="AEeR57KaI1lVdAl2nu8--3" value="&lt;font color=&quot;#808080&quot; style=&quot;font-size: 12px;&quot;&gt;&lt;b&gt;SOCKET&lt;/b&gt;&lt;/font&gt;" style="rounded=1;whiteSpace=wrap;html=1;fontFamily=Times New Roman;fontSize=18;fillColor=#d0cee2;strokeColor=none;" parent="1" vertex="1">
          <mxGeometry x="445" y="160" width="100" height="45" as="geometry" />
        </mxCell>
        <mxCell id="AEeR57KaI1lVdAl2nu8--4" value="&lt;font color=&quot;#808080&quot; style=&quot;font-size: 12px;&quot;&gt;&lt;b&gt;BIND&lt;/b&gt;&lt;/font&gt;" style="rounded=1;whiteSpace=wrap;html=1;fontFamily=Times New Roman;fontSize=18;fillColor=#d0cee2;strokeColor=none;" parent="1" vertex="1">
          <mxGeometry x="445" y="240" width="100" height="45" as="geometry" />
        </mxCell>
        <mxCell id="AEeR57KaI1lVdAl2nu8--5" value="&lt;font color=&quot;#808080&quot; style=&quot;font-size: 12px;&quot;&gt;&lt;b&gt;ACCEPT&lt;/b&gt;&lt;/font&gt;" style="rounded=1;whiteSpace=wrap;html=1;fontFamily=Times New Roman;fontSize=18;fillColor=#d0cee2;strokeColor=none;" parent="1" vertex="1">
          <mxGeometry x="445" y="400" width="100" height="45" as="geometry" />
        </mxCell>
        <mxCell id="AEeR57KaI1lVdAl2nu8--6" value="&lt;font color=&quot;#808080&quot;&gt;&lt;span style=&quot;font-size: 12px;&quot;&gt;&lt;b&gt;READ&lt;/b&gt;&lt;/span&gt;&lt;/font&gt;" style="rounded=1;whiteSpace=wrap;html=1;fontFamily=Times New Roman;fontSize=18;fillColor=#d0cee2;strokeColor=none;" parent="1" vertex="1">
          <mxGeometry x="445" y="480" width="100" height="45" as="geometry" />
        </mxCell>
        <mxCell id="AEeR57KaI1lVdAl2nu8--7" value="&lt;font color=&quot;#808080&quot; style=&quot;font-size: 12px;&quot;&gt;&lt;b&gt;WRITE&lt;/b&gt;&lt;/font&gt;" style="rounded=1;whiteSpace=wrap;html=1;fontFamily=Times New Roman;fontSize=18;fillColor=#d0cee2;strokeColor=none;" parent="1" vertex="1">
          <mxGeometry x="445" y="562" width="100" height="45" as="geometry" />
        </mxCell>
        <mxCell id="AEeR57KaI1lVdAl2nu8--8" value="&lt;font color=&quot;#808080&quot;&gt;&lt;span style=&quot;font-size: 12px;&quot;&gt;&lt;b&gt;LISTEN&lt;/b&gt;&lt;/span&gt;&lt;/font&gt;" style="rounded=1;whiteSpace=wrap;html=1;fontFamily=Times New Roman;fontSize=18;fillColor=#d0cee2;strokeColor=none;" parent="1" vertex="1">
          <mxGeometry x="445" y="320" width="100" height="45" as="geometry" />
        </mxCell>
        <mxCell id="AEeR57KaI1lVdAl2nu8--9" value="&lt;font color=&quot;#808080&quot; style=&quot;font-size: 12px;&quot;&gt;&lt;b&gt;CLOSE&lt;/b&gt;&lt;/font&gt;" style="rounded=1;whiteSpace=wrap;html=1;fontFamily=Times New Roman;fontSize=18;fillColor=#d0cee2;strokeColor=none;" parent="1" vertex="1">
          <mxGeometry x="445" y="640" width="100" height="45" as="geometry" />
        </mxCell>
        <mxCell id="AEeR57KaI1lVdAl2nu8--10" value="&lt;font color=&quot;#808080&quot; style=&quot;font-size: 12px;&quot;&gt;&lt;b&gt;SOCKET&lt;/b&gt;&lt;/font&gt;" style="rounded=1;whiteSpace=wrap;html=1;fontFamily=Times New Roman;fontSize=18;fillColor=#d0cee2;strokeColor=none;" parent="1" vertex="1">
          <mxGeometry x="120" y="160" width="100" height="45" as="geometry" />
        </mxCell>
        <mxCell id="AEeR57KaI1lVdAl2nu8--11" value="&lt;font color=&quot;#808080&quot; style=&quot;font-size: 12px;&quot;&gt;&lt;b&gt;CONNECT&lt;/b&gt;&lt;/font&gt;" style="rounded=1;whiteSpace=wrap;html=1;fontFamily=Times New Roman;fontSize=18;fillColor=#d0cee2;strokeColor=none;" parent="1" vertex="1">
          <mxGeometry x="120" y="400" width="100" height="45" as="geometry" />
        </mxCell>
        <mxCell id="AEeR57KaI1lVdAl2nu8--12" value="&lt;font color=&quot;#808080&quot;&gt;&lt;span style=&quot;font-size: 12px;&quot;&gt;&lt;b&gt;WRITE&lt;/b&gt;&lt;/span&gt;&lt;/font&gt;" style="rounded=1;whiteSpace=wrap;html=1;fontFamily=Times New Roman;fontSize=18;fillColor=#d0cee2;strokeColor=none;" parent="1" vertex="1">
          <mxGeometry x="120" y="480" width="100" height="45" as="geometry" />
        </mxCell>
        <mxCell id="AEeR57KaI1lVdAl2nu8--13" value="&lt;font color=&quot;#808080&quot; style=&quot;font-size: 12px;&quot;&gt;&lt;b&gt;READ&lt;/b&gt;&lt;/font&gt;" style="rounded=1;whiteSpace=wrap;html=1;fontFamily=Times New Roman;fontSize=18;fillColor=#d0cee2;strokeColor=none;" parent="1" vertex="1">
          <mxGeometry x="120" y="562" width="100" height="45" as="geometry" />
        </mxCell>
        <mxCell id="AEeR57KaI1lVdAl2nu8--14" value="&lt;font color=&quot;#808080&quot; style=&quot;font-size: 12px;&quot;&gt;&lt;b&gt;CLOSE&lt;/b&gt;&lt;/font&gt;" style="rounded=1;whiteSpace=wrap;html=1;fontFamily=Times New Roman;fontSize=18;fillColor=#d0cee2;strokeColor=none;" parent="1" vertex="1">
          <mxGeometry x="120" y="640" width="100" height="45" as="geometry" />
        </mxCell>
        <mxCell id="AEeR57KaI1lVdAl2nu8--17" value="" style="shape=flexArrow;endArrow=classic;html=1;rounded=0;fontFamily=Times New Roman;fontSize=12;fontColor=#808080;endWidth=14;endSize=3.67;" parent="1" edge="1">
          <mxGeometry width="50" height="50" relative="1" as="geometry">
            <mxPoint x="494.5" y="210" as="sourcePoint" />
            <mxPoint x="494.5" y="240" as="targetPoint" />
          </mxGeometry>
        </mxCell>
        <mxCell id="AEeR57KaI1lVdAl2nu8--19" value="" style="shape=flexArrow;endArrow=classic;html=1;rounded=0;fontFamily=Times New Roman;fontSize=12;fontColor=#808080;endWidth=14;endSize=3.67;" parent="1" edge="1">
          <mxGeometry width="50" height="50" relative="1" as="geometry">
            <mxPoint x="494.5" y="290" as="sourcePoint" />
            <mxPoint x="494.5" y="320" as="targetPoint" />
          </mxGeometry>
        </mxCell>
        <mxCell id="AEeR57KaI1lVdAl2nu8--20" value="" style="shape=flexArrow;endArrow=classic;html=1;rounded=0;fontFamily=Times New Roman;fontSize=12;fontColor=#808080;endWidth=14;endSize=3.67;" parent="1" edge="1">
          <mxGeometry width="50" height="50" relative="1" as="geometry">
            <mxPoint x="494.5" y="370" as="sourcePoint" />
            <mxPoint x="494.5" y="400" as="targetPoint" />
          </mxGeometry>
        </mxCell>
        <mxCell id="AEeR57KaI1lVdAl2nu8--21" value="" style="shape=flexArrow;endArrow=classic;html=1;rounded=0;fontFamily=Times New Roman;fontSize=12;fontColor=#808080;endWidth=14;endSize=3.67;" parent="1" edge="1">
          <mxGeometry width="50" height="50" relative="1" as="geometry">
            <mxPoint x="494.5" y="450" as="sourcePoint" />
            <mxPoint x="494.5" y="480" as="targetPoint" />
          </mxGeometry>
        </mxCell>
        <mxCell id="AEeR57KaI1lVdAl2nu8--22" value="" style="shape=flexArrow;endArrow=classic;html=1;rounded=0;fontFamily=Times New Roman;fontSize=12;fontColor=#808080;endWidth=14;endSize=3.67;" parent="1" edge="1">
          <mxGeometry width="50" height="50" relative="1" as="geometry">
            <mxPoint x="494.5" y="532" as="sourcePoint" />
            <mxPoint x="494.5" y="562" as="targetPoint" />
          </mxGeometry>
        </mxCell>
        <mxCell id="AEeR57KaI1lVdAl2nu8--24" value="" style="shape=flexArrow;endArrow=classic;html=1;rounded=0;fontFamily=Times New Roman;fontSize=12;fontColor=#808080;endWidth=14;endSize=3.67;" parent="1" edge="1">
          <mxGeometry width="50" height="50" relative="1" as="geometry">
            <mxPoint x="494.5" y="610" as="sourcePoint" />
            <mxPoint x="494.5" y="640" as="targetPoint" />
          </mxGeometry>
        </mxCell>
        <mxCell id="AEeR57KaI1lVdAl2nu8--25" value="" style="shape=flexArrow;endArrow=classic;html=1;rounded=0;fontFamily=Times New Roman;fontSize=12;fontColor=#808080;endWidth=14;endSize=3.67;entryX=0.5;entryY=0;entryDx=0;entryDy=0;" parent="1" target="AEeR57KaI1lVdAl2nu8--11" edge="1">
          <mxGeometry width="50" height="50" relative="1" as="geometry">
            <mxPoint x="170" y="210" as="sourcePoint" />
            <mxPoint x="169.5" y="390" as="targetPoint" />
          </mxGeometry>
        </mxCell>
        <mxCell id="AEeR57KaI1lVdAl2nu8--26" value="" style="shape=flexArrow;endArrow=classic;html=1;rounded=0;fontFamily=Times New Roman;fontSize=12;fontColor=#808080;endWidth=14;endSize=3.67;" parent="1" edge="1">
          <mxGeometry width="50" height="50" relative="1" as="geometry">
            <mxPoint x="169.5" y="450" as="sourcePoint" />
            <mxPoint x="169.5" y="480" as="targetPoint" />
          </mxGeometry>
        </mxCell>
        <mxCell id="AEeR57KaI1lVdAl2nu8--27" value="" style="shape=flexArrow;endArrow=classic;html=1;rounded=0;fontFamily=Times New Roman;fontSize=12;fontColor=#808080;endWidth=14;endSize=3.67;" parent="1" edge="1">
          <mxGeometry width="50" height="50" relative="1" as="geometry">
            <mxPoint x="169.5" y="532" as="sourcePoint" />
            <mxPoint x="169.5" y="562" as="targetPoint" />
          </mxGeometry>
        </mxCell>
        <mxCell id="AEeR57KaI1lVdAl2nu8--28" value="" style="shape=flexArrow;endArrow=classic;html=1;rounded=0;fontFamily=Times New Roman;fontSize=12;fontColor=#808080;endWidth=14;endSize=3.67;" parent="1" edge="1">
          <mxGeometry width="50" height="50" relative="1" as="geometry">
            <mxPoint x="169.5" y="610" as="sourcePoint" />
            <mxPoint x="169.5" y="640" as="targetPoint" />
          </mxGeometry>
        </mxCell>
        <mxCell id="AEeR57KaI1lVdAl2nu8--29" value="" style="endArrow=classic;html=1;fontFamily=Times New Roman;fontSize=12;fontColor=#808080;fillColor=#b1ddf0;strokeColor=none;curved=1;fillStyle=zigzag-line;gradientColor=default;shape=flexArrow;strokeWidth=0;" parent="1" edge="1">
          <mxGeometry width="50" height="50" relative="1" as="geometry">
            <mxPoint x="560" y="585" as="sourcePoint" />
            <mxPoint x="550" y="505" as="targetPoint" />
            <Array as="points">
              <mxPoint x="650" y="585" />
              <mxPoint x="650" y="505" />
              <mxPoint x="590" y="505" />
            </Array>
          </mxGeometry>
        </mxCell>
        <mxCell id="AEeR57KaI1lVdAl2nu8--30" value="" style="endArrow=classic;html=1;fontFamily=Times New Roman;fontSize=12;fontColor=#808080;fillColor=#b1ddf0;strokeColor=none;curved=1;fillStyle=zigzag-line;gradientColor=default;shape=flexArrow;strokeWidth=0;rounded=1;shadow=0;" parent="1" edge="1">
          <mxGeometry width="50" height="50" relative="1" as="geometry">
            <mxPoint x="110" y="580" as="sourcePoint" />
            <mxPoint x="120" y="500" as="targetPoint" />
            <Array as="points">
              <mxPoint x="20" y="580" />
              <mxPoint x="20" y="500" />
              <mxPoint x="80" y="500" />
            </Array>
          </mxGeometry>
        </mxCell>
        <mxCell id="AEeR57KaI1lVdAl2nu8--32" value="" style="endArrow=classic;html=1;rounded=1;shadow=0;fillStyle=zigzag-line;strokeColor=#6c8ebf;strokeWidth=2;fontFamily=Times New Roman;fontSize=12;fontColor=#808080;gradientColor=#7ea6e0;curved=1;dashed=1;fillColor=#dae8fc;" parent="1" edge="1">
          <mxGeometry width="50" height="50" relative="1" as="geometry">
            <mxPoint x="240" y="502" as="sourcePoint" />
            <mxPoint x="430" y="502" as="targetPoint" />
          </mxGeometry>
        </mxCell>
        <mxCell id="AEeR57KaI1lVdAl2nu8--33" value="" style="endArrow=classic;html=1;rounded=1;shadow=0;fillStyle=zigzag-line;strokeColor=#6c8ebf;strokeWidth=2;fontFamily=Times New Roman;fontSize=12;fontColor=#808080;curved=1;dashed=1;fillColor=#dae8fc;" parent="1" edge="1">
          <mxGeometry width="50" height="50" relative="1" as="geometry">
            <mxPoint x="430" y="584" as="sourcePoint" />
            <mxPoint x="240" y="584" as="targetPoint" />
          </mxGeometry>
        </mxCell>
        <mxCell id="AEeR57KaI1lVdAl2nu8--35" value="&lt;font style=&quot;font-size: 14px;&quot; color=&quot;#ff8000&quot;&gt;&lt;b&gt;COMMUNICATION&lt;/b&gt;&lt;/font&gt;" style="text;html=1;align=center;verticalAlign=middle;resizable=0;points=[];autosize=1;strokeColor=none;fillColor=none;fontSize=12;fontFamily=Times New Roman;fontColor=#808080;" parent="1" vertex="1">
          <mxGeometry x="255" y="540" width="150" height="30" as="geometry" />
        </mxCell>
        <mxCell id="AEeR57KaI1lVdAl2nu8--36" value="" style="endArrow=classic;startArrow=none;html=1;rounded=1;shadow=0;dashed=1;fillStyle=zigzag-line;strokeColor=#6c8ebf;strokeWidth=2;fontFamily=Times New Roman;fontSize=12;fontColor=#FF8000;curved=1;fillColor=#dae8fc;" parent="1" source="AEeR57KaI1lVdAl2nu8--38" edge="1">
          <mxGeometry width="50" height="50" relative="1" as="geometry">
            <mxPoint x="240" y="422" as="sourcePoint" />
            <mxPoint x="430" y="422" as="targetPoint" />
          </mxGeometry>
        </mxCell>
        <mxCell id="AEeR57KaI1lVdAl2nu8--37" value="&lt;b&gt;&lt;font style=&quot;font-size: 14px;&quot;&gt;SYNCHRONIZATION &lt;br&gt;POINT&lt;/font&gt;&lt;/b&gt;" style="text;html=1;align=center;verticalAlign=middle;resizable=0;points=[];autosize=1;strokeColor=none;fillColor=none;fontSize=12;fontFamily=Times New Roman;fontColor=#FF8000;" parent="1" vertex="1">
          <mxGeometry x="250" y="367.5" width="160" height="50" as="geometry" />
        </mxCell>
        <mxCell id="AEeR57KaI1lVdAl2nu8--38" value="" style="ellipse;whiteSpace=wrap;html=1;aspect=fixed;fontFamily=Times New Roman;fontSize=12;fillColor=#f8cecc;gradientColor=#ea6b66;strokeColor=#b85450;" parent="1" vertex="1">
          <mxGeometry x="320" y="412.5" width="20" height="20" as="geometry" />
        </mxCell>
        <mxCell id="AEeR57KaI1lVdAl2nu8--40" value="" style="endArrow=none;startArrow=classic;html=1;rounded=1;shadow=0;dashed=1;fillStyle=zigzag-line;strokeColor=#6c8ebf;strokeWidth=2;fontFamily=Times New Roman;fontSize=12;fontColor=#FF8000;curved=1;fillColor=#dae8fc;" parent="1" target="AEeR57KaI1lVdAl2nu8--38" edge="1">
          <mxGeometry width="50" height="50" relative="1" as="geometry">
            <mxPoint x="240" y="422" as="sourcePoint" />
            <mxPoint x="430" y="422" as="targetPoint" />
          </mxGeometry>
        </mxCell>
      </root>
    </mxGraphModel>
  </diagram>
</mxfile>
